<svg xmlns="http://www.w3.org/2000/svg" xmlns:svgjs="http://svgjs.com/svgjs" xmlns:xlink="http://www.w3.org/1999/xlink" width="288" height="288"><svg xmlns="http://www.w3.org/2000/svg" width="288" height="288" version="1.0" viewBox="0 0 480 480"><path fill="#2d4cab" d="M250 4763 c-97 -34 -176 -109 -210 -201 -20 -53 -20 -78 -18 -2175l3 -2122 23 -46 c36 -74 87 -125 160 -161 l67 -33 2125 0 2125 0 67 33 c73 36
123 86 160 161 l23 46 3 2122 c2 2115 2 2122 -18 2176 -27 73 -85 136 -162
178 l-63 34 -2120 2 c-1908 2 -2124 1 -2165 -14z m990 -665 c218 -101 311
-350 209 -556 -126 -257 -465 -316 -665 -115 -159 160 -162 408 -6 575 90 96
172 129 312 125 77 -2 105 -8 150 -29z m2249 -1068 c247 -50 426 -202 510
-436 79 -217 91 -382 91 -1236 l0 -638 -359 0 -360 0 -3 683 c-4 668 -4 684
-26 762 -32 117 -79 181 -166 225 -66 33 -74 35 -175 35 -80 0 -118 -5 -156
-19 -152 -58 -230 -178 -255 -393 -5 -50 -10 -349 -10 -690 l0 -603 -355 0
-355 0 0 1140 0 1140 340 0 339 0 3 -156 3 -156 39 57 c115 166 333 286 561
309 72 7 238 -5 334 -24z m-2059 -1170 l0 -1140 -355 0 -355 0 0 1140 0 1140
355 0 355 0 0 -1140z" class="color000 svgShape" transform="matrix(.1 0 0 -.1 0 480)"/></svg></svg>